<?xml version="1.0" standalone="no"?>
<!DOCTYPE svg PUBLIC "-//W3C//DTD SVG 20010904//EN"
 "http://www.w3.org/TR/2001/REC-SVG-20010904/DTD/svg10.dtd">
<svg version="1.0" xmlns="http://www.w3.org/2000/svg"
 width="512.000000pt" height="512.000000pt" viewBox="0 0 512.000000 512.000000"
 preserveAspectRatio="xMidYMid meet">

<g transform="translate(0.000000,512.000000) scale(0.100000,-0.100000)"
fill="#000000" stroke="none">
<path d="M1210 4925 c-398 -58 -743 -295 -963 -662 -175 -290 -267 -672 -239
-994 43 -495 268 -971 638 -1356 55 -57 504 -469 999 -918 889 -805 899 -814
920 -796 11 10 436 389 945 843 872 778 1013 910 1137 1068 322 413 510 984
464 1409 -26 237 -76 421 -165 607 -167 348 -438 607 -762 729 -339 128 -733
106 -1058 -57 -211 -106 -404 -274 -528 -459 l-52 -78 -49 75 c-176 265 -443
465 -732 549 -183 53 -374 67 -555 40z m445 -213 c231 -59 460 -205 604 -386
87 -108 155 -227 221 -384 35 -83 65 -150 66 -149 1 1 29 66 63 144 34 79 82
177 107 220 299 507 923 720 1444 494 395 -171 669 -567 745 -1073 72 -480
-143 -1070 -549 -1505 -67 -71 -1784 -1613 -1806 -1621 -13 -5 -1717 1545
-1803 1640 -289 318 -472 693 -532 1093 -41 277 13 611 142 870 177 353 466
589 815 665 123 26 361 22 483 -8z"/>
</g>
</svg>
